# Blender 3.4.1
# www.blender.org
mtllib gruszka.mtl
o Pear_02_MESH_Pear_02_SCAN_recontour.003
v 0.003947 0.046413 0.017822
v -0.013098 0.050996 0.003725
v -0.005816 0.048848 -0.014937
v 0.012085 0.049240 -0.015088
v 0.019004 0.048931 -0.003940
v 0.015572 0.056028 0.006484
v -0.013467 0.040658 0.010261
v -0.011574 0.048358 -0.009682
v 0.017024 0.047090 -0.010948
v 0.017317 0.056475 0.001771
v -0.003328 0.046566 0.016463
v -0.016693 0.041271 0.003276
v -0.016293 0.033545 -0.010053
v -0.009849 0.030906 -0.017093
v -0.002680 0.031714 -0.020224
v 0.005890 0.048641 -0.018016
v 0.013334 0.027309 -0.018150
v 0.020907 0.038763 0.004682
v 0.018502 0.038624 0.011124
v 0.004489 0.023831 0.024480
v -0.020915 0.024042 0.012325
v -0.024038 0.024024 -0.000916
v -0.010469 0.020990 -0.020651
v 0.019740 0.024092 -0.012330
v -0.001774 0.003019 0.036008
v -0.011057 0.002343 0.034451
v -0.018075 0.007832 0.027956
v -0.028246 0.006541 0.018688
v -0.034489 0.005506 0.002019
v -0.033600 0.003760 -0.008579
v -0.027850 0.006570 -0.016839
v -0.018186 0.006612 -0.025702
v -0.007220 0.007984 -0.030990
v 0.005621 0.001290 -0.034004
v 0.023527 0.002124 -0.023117
v 0.027363 0.003041 -0.017037
v 0.033618 0.000787 0.001043
v 0.023459 0.002347 0.023776
v 0.009374 0.000483 0.034423
v -0.001894 -0.009424 0.038636
v -0.014116 -0.010683 0.036287
v -0.020439 -0.004734 0.031716
v -0.032601 -0.003486 0.019392
v -0.038003 -0.011487 0.000711
v -0.037174 -0.007462 -0.006765
v -0.031466 -0.004198 -0.018383
v -0.021896 -0.004390 -0.028468
v -0.002814 -0.003883 -0.036393
v 0.012243 -0.002864 -0.033431
v 0.025067 -0.010501 -0.025729
v 0.033218 -0.005707 -0.013245
v 0.036771 -0.010163 0.000483
v 0.031316 -0.000061 0.013994
v 0.029905 -0.010530 0.019996
v 0.018311 -0.009933 0.030824
v -0.000834 -0.022788 0.036969
v -0.015661 -0.022143 0.033711
v -0.027464 -0.022206 0.026430
v -0.035250 -0.015369 0.016642
v -0.036031 -0.022948 -0.005313
v -0.030215 -0.018133 -0.021167
v -0.023231 -0.018421 -0.028654
v -0.007961 -0.017266 -0.036385
v 0.012884 -0.016416 -0.034511
v 0.024493 -0.023939 -0.024946
v 0.033452 -0.018799 -0.013882
v 0.035813 -0.023042 0.000815
v 0.034791 -0.016865 0.010897
v 0.029384 -0.022751 0.018785
v 0.018702 -0.022431 0.028791
v -0.000385 -0.034094 0.031800
v -0.014441 -0.033694 0.029307
v -0.024809 -0.032972 0.022788
v -0.032707 -0.029800 0.014098
v -0.036119 -0.026681 0.001886
v -0.026044 -0.034127 -0.016480
v -0.016894 -0.034828 -0.025910
v -0.000645 -0.029003 -0.034240
v 0.010063 -0.033131 -0.030761
v 0.017735 -0.032004 -0.027259
v 0.026573 -0.032515 -0.018456
v 0.031808 -0.033355 -0.000308
v 0.031904 -0.029680 0.009542
v 0.025164 -0.033552 0.016789
v 0.015260 -0.035389 0.024703
v -0.008999 -0.046050 0.020999
v -0.014785 -0.048031 0.015266
v -0.023011 -0.045501 0.008605
v -0.029774 -0.039420 0.002430
v -0.028333 -0.037674 -0.009353
v -0.008942 -0.043078 -0.024271
v 0.000491 -0.043455 -0.026010
v 0.009645 -0.045478 -0.022256
v 0.017860 -0.043823 -0.018693
v 0.023619 -0.045450 -0.005007
v 0.024598 0.017404 0.006006
v 0.020423 0.019907 0.014921
v 0.013594 0.023119 0.020368
v -0.004633 0.022430 0.025454
v -0.013169 0.020876 0.022378
v -0.021335 0.019556 -0.012814
v -0.004508 0.019397 -0.023723
v 0.005560 0.019888 -0.023648
v 0.013497 0.018556 -0.021466
v 0.025321 0.015951 -0.004799
v 0.008968 0.061276 0.009470
v 0.014579 0.063840 -0.004603
v 0.011622 0.060900 -0.010365
v 0.006593 0.060450 -0.013465
v 0.003031 0.060079 -0.014127
v -0.000723 0.061807 -0.012930
v -0.007722 0.062906 -0.003992
v -0.007393 0.055483 0.008961
v 0.001465 0.064833 0.009038
v 0.006694 0.071706 0.003767
v 0.005029 0.071851 -0.013561
v 0.002446 0.071837 0.003736
v 0.009900 0.070177 -0.011934
v -0.005331 0.065940 0.002389
v 0.012610 0.071105 -0.006061
v -0.002996 0.070502 -0.003905
v 0.012516 0.068946 -0.000677
v 0.009328 0.072260 0.001094
v 0.001476 0.070840 -0.011916
v 0.000228 0.073800 -0.002486
v 0.002682 0.073221 -0.010494
v 0.006078 0.075902 -0.010315
v 0.008298 0.074396 -0.011630
v 0.010345 0.074673 -0.008136
v 0.002225 0.075256 -0.004769
v 0.008988 0.076133 -0.003532
v 0.005662 0.076131 -0.002049
v 0.006551 0.076666 -0.003993
v 0.008928 0.076775 -0.006477
v 0.010276 0.077222 -0.010963
v 0.009805 0.075663 -0.006091
v 0.005825 0.075491 -0.007334
v 0.010419 0.083959 -0.013639
v 0.010929 0.084690 -0.010092
v 0.012861 0.086124 -0.014454
v 0.009683 0.086562 -0.012686
v 0.009319 0.092111 -0.015656
v 0.013280 0.092892 -0.014515
v 0.010399 0.089416 -0.018124
v 0.011108 0.093256 -0.014615
v 0.014098 0.089766 -0.013998
v 0.012668 0.091206 -0.019675
v 0.010342 0.092752 -0.020709
v 0.011848 0.095914 -0.022668
v 0.012427 0.098358 -0.018664
v 0.015717 0.095801 -0.020138
v 0.010681 0.097669 -0.021005
v 0.014605 0.097729 -0.018137
v 0.014689 0.095095 -0.021859
v 0.014174 0.098217 -0.020351
v 0.000435 -0.051713 0.016762
v -0.017811 -0.051642 0.002781
v -0.003107 -0.051665 -0.016140
v 0.016275 -0.053043 -0.001642
v -0.007195 -0.052330 0.013683
v 0.019602 -0.049533 0.003298
v -0.016521 -0.048986 -0.011251
v 0.015926 -0.050449 0.010637
v 0.009663 -0.050536 0.016045
v 0.017257 -0.049228 -0.011165
v -0.008849 -0.054692 0.004015
v 0.010330 -0.054922 0.000132
v -0.011930 -0.054122 -0.003729
v 0.007597 -0.055359 0.005982
v 0.001945 -0.052741 -0.014598
v 0.011017 -0.052589 -0.010483
v 0.001021 -0.055106 0.001263
v 0.004369 -0.054605 0.000768
v 0.000241 -0.055474 0.000095
v 0.000602 -0.055023 -0.001383
v 0.003261 -0.055031 -0.001660
v 0.001859 -0.053740 -0.004130
v 0.001804 -0.054312 -0.002695
v -0.002281 -0.055269 0.000953
v -0.001201 -0.054402 0.000503
v 0.000131 -0.053566 0.002795
v 0.002764 -0.054266 -0.004801
v -0.002714 -0.053596 0.001669
v -0.001962 -0.053167 -0.002969
v 0.004457 -0.055412 -0.005465
v -0.004514 -0.053869 -0.007299
v 0.005494 -0.053339 -0.006451
v 0.003108 -0.053611 0.004506
v -0.000141 -0.053269 0.004532
v 0.002741 -0.054179 0.004218
v 0.002453 -0.054599 0.003886
v 0.000960 -0.054965 0.006065
v 0.002857 -0.055941 0.006388
v 0.001976 -0.055189 0.006883
v 0.000086 -0.053020 -0.004664
v -0.001087 -0.055359 -0.003467
v -0.000873 -0.055864 -0.004630
v -0.015482 0.045233 -0.003291
v -0.000279 0.048290 -0.017908
v 0.022305 0.026793 -0.005678
v -0.034579 0.001471 0.011866
v -0.027658 -0.013962 0.027203
v -0.011928 -0.003560 -0.034080
v 0.009208 -0.019224 0.035537
v -0.013517 -0.026861 -0.032106
v 0.002670 -0.016872 -0.037002
v 0.007160 -0.034315 0.029892
v 0.028891 -0.035261 -0.012498
v -0.001818 0.068136 -0.009465
v 0.007438 0.076155 -0.011229
v 0.014397 0.090739 -0.017378
v 0.012132 0.098130 -0.021025
v 0.010964 -0.054158 0.009989
v 0.000823 -0.053631 0.010831
v 0.002517 -0.053985 0.002370
v -0.002206 -0.053166 -0.001241
v 0.003773 -0.053121 -0.007085
v 0.004638 -0.054671 -0.003885
v 0.005439 -0.053389 -0.003854
v 0.001410 -0.053501 0.005613
v 0.011910 0.047599 0.014084
v 0.002734 -0.054660 0.000265
v -0.000395 -0.055062 -0.000371
v -0.000049 -0.054653 -0.002703
v 0.004053 -0.053876 -0.002264
v 0.005741 -0.053400 -0.000313
vn 0.1161 0.3506 0.9293
vn -0.1988 0.5380 0.8192
vn -0.3571 0.3908 0.8484
vn -0.8800 0.3948 0.2640
vn -0.6423 0.4315 0.6334
vn -0.7368 0.5623 0.3754
vn -0.8661 0.4620 -0.1911
vn -0.9167 0.3522 -0.1886
vn -0.7770 0.3146 -0.5452
vn -0.7357 0.4224 -0.5295
vn -0.0342 0.2477 -0.9682
vn 0.1919 0.2365 -0.9525
vn -0.2282 0.2348 -0.9449
vn 0.3288 0.1797 -0.9272
vn 0.5490 0.2364 -0.8017
vn 0.6954 0.2057 -0.6886
vn 0.8216 0.2033 -0.5325
vn 0.9634 0.2168 -0.1579
vn 0.9330 0.2814 -0.2245
vn 0.7769 0.3557 0.5195
vn 0.4244 0.4606 0.7796
vn 0.5258 0.3064 0.7935
vn -0.7729 0.3671 0.5176
vn -0.5136 0.4380 0.7378
vn -0.9048 0.3629 0.2227
vn -0.5505 0.2688 -0.7904
vn -0.7110 0.3200 -0.6262
vn -0.2508 0.2320 -0.9398
vn -0.5514 0.2730 -0.7884
vn 0.5778 0.1952 -0.7925
vn 0.9651 0.1946 0.1751
vn 0.9349 0.3139 0.1654
vn -0.1793 0.4096 0.8945
vn -0.7826 0.4393 0.4412
vn 0.8438 0.1715 -0.5085
vn 0.8077 0.2440 -0.5367
vn 0.8043 0.2345 0.5461
vn 0.9269 0.3316 0.1755
vn 0.5409 0.3256 0.7755
vn 0.2333 0.3661 0.9009
vn -0.7078 0.4540 -0.5412
vn -0.9018 0.4271 -0.0658
vn -0.4613 0.4222 -0.7803
vn 0.1768 0.3715 -0.9114
vn -0.1667 0.4480 -0.8784
vn 0.9227 0.3483 -0.1652
vn 0.7914 0.3290 0.5152
vn 0.3788 0.2529 0.8903
vn 0.0081 0.3366 0.9416
vn -0.3106 0.3288 0.8919
vn -0.7203 0.4317 0.5430
vn -0.5716 0.2098 0.7933
vn -0.5284 0.4283 0.7331
vn -0.9108 0.3141 0.2679
vn -0.8184 0.2216 0.5302
vn -0.7229 0.4355 -0.5364
vn -0.5926 0.2140 -0.7766
vn -0.8131 0.1816 -0.5531
vn -0.2115 0.4673 -0.8584
vn -0.5202 0.4370 -0.7338
vn 0.1944 0.3607 -0.9122
vn -0.0478 0.2097 -0.9766
vn 0.4007 0.2370 -0.8851
vn 0.6772 0.2964 0.6734
vn 0.0198 0.0428 0.9989
vn -0.3627 0.0068 0.9319
vn -0.6956 0.0167 0.7182
vn -0.9251 -0.0577 0.3753
vn -0.9224 0.3858 0.0200
vn -0.9996 0.0211 0.0188
vn -0.8146 -0.1523 -0.5597
vn -0.3848 0.2279 -0.8944
vn -0.6262 -0.1314 -0.7685
vn -0.2451 -0.0930 -0.9650
vn 0.1186 -0.0883 -0.9890
vn 0.7061 0.0789 -0.7037
vn 0.6787 0.3439 -0.6489
vn 0.4054 -0.0759 -0.9110
vn 0.7986 0.3741 -0.4715
vn 0.9001 0.2125 -0.3804
vn 0.9950 0.0999 0.0092
vn 0.9306 0.3660 0.0069
vn 0.8759 0.3004 0.3776
vn 0.7970 0.0488 0.6020
vn 0.9416 -0.0636 0.3308
vn 0.5806 0.0399 0.8132
vn 0.0183 -0.2839 0.9587
vn 0.3685 -0.1743 0.9132
vn -0.3849 -0.2524 0.8878
vn -0.6762 -0.2331 0.6989
vn -0.9533 -0.3019 -0.0019
vn -0.9392 -0.2293 -0.2556
vn -0.8480 -0.3959 0.3524
vn -0.3785 -0.3396 -0.8611
vn -0.0173 -0.3681 -0.9296
vn 0.6901 -0.1880 -0.6989
vn 0.5207 -0.3851 -0.7619
vn 0.9107 -0.1142 -0.3970
vn 0.9763 -0.2165 -0.0008
vn 0.7625 -0.2390 0.6012
vn 0.8524 -0.4123 0.3215
vn 0.5849 -0.2531 0.7706
vn 0.0289 -0.5160 0.8561
vn -0.3371 -0.5033 0.7957
vn -0.6133 -0.5039 0.6083
vn -0.8135 -0.5814 0.0101
vn -0.7787 -0.5306 -0.3348
vn -0.7194 -0.4478 -0.5310
vn -0.5298 -0.4838 -0.6966
vn -0.3163 -0.6318 -0.7076
vn 0.2903 -0.4119 -0.8638
vn -0.0020 -0.6319 -0.7751
vn 0.7396 -0.3746 -0.5592
vn 0.8308 -0.4498 -0.3277
vn 0.8859 -0.4634 0.0213
vn 0.5148 -0.4787 0.7112
vn 0.6829 -0.4835 0.5475
vn 0.3010 -0.4909 0.8176
vn 0.0005 -0.8198 0.5727
vn -0.2411 -0.6809 0.6916
vn -0.4558 -0.7376 0.4981
vn -0.6631 -0.6843 0.3033
vn -0.5501 -0.8321 0.0706
vn -0.5324 -0.7452 -0.4015
vn 0.2818 -0.6883 -0.6684
vn 0.5404 -0.6259 -0.5623
vn 0.7643 -0.6330 -0.1230
vn 0.5356 -0.7492 -0.3896
vn 0.7144 -0.6736 0.1896
vn 0.3222 -0.6961 0.6417
vn 0.6173 -0.6714 0.4102
vn -0.8836 0.3673 -0.2903
vn 0.4927 0.3837 -0.7810
vn -0.2895 0.7240 0.6261
vn 0.2886 0.6379 0.7140
vn -0.6079 0.4284 -0.6685
vn -0.1055 0.3338 -0.9367
vn 0.6086 0.5786 0.5430
vn 0.8443 0.4030 0.3532
vn -0.7756 0.6190 -0.1233
vn 0.6648 0.1545 -0.7309
vn -0.4005 0.2780 -0.8731
vn 0.9229 0.3616 -0.1322
vn 0.8073 0.5877 0.0541
vn 0.9634 0.2130 -0.1631
vn 0.5159 0.7915 0.3276
vn -0.0832 0.9144 0.3961
vn -0.6125 0.6841 -0.3959
vn -0.7595 0.5306 -0.3762
vn 0.4939 0.1303 -0.8597
vn -0.5979 0.7808 0.1814
vn 0.7419 -0.3857 -0.5485
vn -0.5394 0.8416 -0.0269
vn -0.4894 0.8632 -0.1243
vn -0.1312 0.9905 0.0419
vn 0.3678 0.7870 0.4953
vn -0.4123 -0.2504 -0.8760
vn -0.4698 0.1485 -0.8702
vn 0.9144 0.0575 0.4007
vn 0.7089 -0.4832 -0.5138
vn 0.0475 0.4093 0.9111
vn -0.9659 0.1881 0.1781
vn 0.5661 0.4109 0.7146
vn -0.5433 -0.5602 -0.6253
vn -0.9400 0.2126 0.2669
vn -0.3380 0.5483 0.7649
vn 0.9346 -0.2981 -0.1941
vn 0.2884 -0.6145 -0.7343
vn 0.5989 0.6375 0.4847
vn -0.2537 0.8905 0.3778
vn 0.9851 0.0457 -0.1657
vn -0.2064 0.0924 -0.9741
vn 0.6087 -0.1458 -0.7799
vn -0.7319 0.6234 -0.2751
vn -0.6303 -0.3470 -0.6945
vn -0.0335 0.8682 -0.4951
vn 0.4994 0.7876 -0.3609
vn -0.1555 -0.8531 -0.4980
vn 0.0688 -0.9177 -0.3913
vn -0.2164 -0.8833 0.4158
vn -0.2930 -0.9415 -0.1664
vn 0.2478 -0.9055 -0.3445
vn 0.5000 -0.8633 -0.0692
vn 0.3001 -0.8974 0.3235
vn -0.1214 -0.9874 0.1016
vn 0.0584 -0.9954 -0.0763
vn -0.0384 -0.9986 0.0357
vn 0.0365 -0.9946 -0.0969
vn -0.0571 -0.9804 0.1888
vn -0.1357 -0.9816 -0.1342
vn -0.2702 -0.9620 -0.0384
vn -0.0141 -0.9939 0.1098
vn -0.4835 -0.7489 0.4531
vn -0.4892 -0.8701 0.0598
vn 0.0302 -0.9650 -0.2604
vn 0.1678 -0.8869 -0.4304
vn 0.5266 -0.7726 0.3547
vn 0.2255 -0.9459 0.2334
vn 0.1767 -0.9824 0.0614
vn 0.0293 -0.9112 0.4110
vn -0.2939 -0.9454 0.1408
vn 0.3637 -0.9313 -0.0191
vn -0.0861 -0.9860 -0.1430
vn 0.0527 -0.9916 -0.1177
vn -0.4185 -0.8961 0.1479
vn -0.2027 -0.9635 0.1747
vn 0.0258 -0.9969 -0.0743
vn -0.1418 -0.9746 0.1734
vn -0.2686 -0.9604 0.0747
vn -0.1229 -0.8609 -0.4938
vn -0.4331 -0.8959 -0.0986
vn -0.0520 -0.9568 -0.2862
vn 0.1987 -0.9634 -0.1799
vn -0.2071 -0.8178 -0.5369
vn 0.1301 -0.9298 -0.3443
vn 0.3847 -0.8075 0.4471
vn 0.1247 -0.9884 0.0867
vn 0.3416 -0.8541 -0.3922
vn 0.6092 -0.7070 0.3591
vn -0.7756 -0.4615 0.4308
vn -0.1106 -0.7535 0.6481
vn 0.8882 -0.4549 0.0652
vn 0.0275 -0.0906 0.9955
vn 0.2496 -0.9657 0.0720
vn -0.9693 0.0882 -0.2295
vn 0.4904 -0.8594 -0.1445

s 1
f 1//1 114//2 11//3
f 2//4 113//5 119//6
f 2//4 119//6 112//7
f 112//7 198//8 2//4
f 112//7 8//9 198//8
f 8//9 112//7 209//10
f 110//11 16//12 199//13
f 16//12 110//11 109//14
f 109//14 4//15 16//12
f 4//15 109//14 108//16
f 4//15 108//16 9//17
f 5//18 9//17 107//19
f 6//20 106//21 221//22
f 113//5 7//23 100//24
f 100//24 11//3 113//5
f 7//23 113//5 2//4
f 2//4 12//25 7//23
f 2//4 198//8 12//25
f 8//9 3//26 13//27
f 3//26 15//28 14//29
f 199//13 16//12 15//28
f 9//17 17//30 4//15
f 6//20 18//31 10//32
f 11//3 99//33 1//1
f 12//25 21//34 7//23
f 200//35 24//36 9//17
f 19//37 96//38 18//31
f 19//37 221//22 98//39
f 98//39 1//1 20//40
f 198//8 101//41 22//42
f 13//27 23//43 101//41
f 15//28 103//44 102//45
f 102//45 23//43 15//28
f 16//12 17//30 103//44
f 96//38 105//46 5//18
f 105//46 200//35 5//18
f 96//38 19//37 97//47
f 39//48 20//40 25//49
f 25//49 99//33 26//50
f 28//51 42//52 27//53
f 201//54 43//55 28//51
f 31//56 47//57 46//58
f 33//59 47//57 32//60
f 33//59 34//61 48//62
f 103//44 49//63 34//61
f 38//64 98//39 39//48
f 39//48 25//49 40//65
f 40//65 26//50 41//66
f 43//55 202//67 42//52
f 201//54 59//68 43//55
f 201//54 29//69 44//70
f 44//70 59//68 201//54
f 47//57 61//71 46//58
f 203//72 62//73 47//57
f 48//62 63//74 203//72
f 48//62 34//61 49//63
f 49//63 206//75 48//62
f 50//76 49//63 35//77
f 50//76 64//78 49//63
f 50//76 36//79 51//80
f 52//81 51//80 37//82
f 53//83 54//84 68//85
f 68//85 52//81 53//83
f 54//84 53//83 38//64
f 38//64 55//86 54//84
f 55//86 38//64 39//48
f 56//87 204//88 40//65
f 56//87 41//66 57//89
f 57//89 202//67 58//90
f 59//68 44//70 75//91
f 75//91 44//70 60//92
f 75//91 74//93 59//68
f 63//74 205//94 62//73
f 206//75 78//95 63//74
f 64//78 78//95 206//75
f 64//78 50//76 65//96
f 65//96 80//97 64//78
f 66//98 50//76 51//80
f 67//99 66//98 52//81
f 68//85 69//100 83//101
f 83//101 67//99 68//85
f 54//84 70//102 69//100
f 55//86 204//88 70//102
f 71//103 204//88 56//87
f 72//104 56//87 57//89
f 72//104 58//90 73//105
f 75//91 89//106 74//93
f 75//91 60//92 90//107
f 90//107 61//71 76//108
f 90//107 89//106 75//91
f 76//108 62//73 77//109
f 78//95 91//110 205//94
f 79//111 92//112 78//95
f 80//97 65//96 81//113
f 81//113 65//96 66//98
f 66//98 208//114 81//113
f 82//115 208//114 67//99
f 69//100 85//116 84//117
f 70//102 207//118 85//116
f 156//119 207//118 71//103
f 86//120 71//103 72//104
f 87//121 72//104 73//105
f 88//122 73//105 74//93
f 90//107 157//123 89//106
f 90//107 76//108 162//124
f 162//124 77//109 91//110
f 92//112 79//111 93//125
f 93//125 80//97 94//126
f 95//127 165//128 208//114
f 208//114 165//128 94//126
f 95//127 82//115 161//129
f 84//117 164//130 163//131
f 98//39 38//64 97//47
f 21//34 27//53 100//24
f 28//51 21//34 201//54
f 22//42 31//56 30//132
f 101//41 32//60 31//56
f 23//43 33//59 32//60
f 102//45 103//44 33//59
f 17//30 24//36 104//133
f 24//36 105//46 36//79
f 117//134 114//2 115//135
f 110//11 124//136 116//137
f 116//137 109//14 110//11
f 123//138 10//32 122//139
f 112//7 119//6 121//140
f 109//14 116//137 118//141
f 118//141 108//16 109//14
f 115//135 6//20 123//138
f 117//134 119//6 114//2
f 111//142 209//10 124//136
f 10//32 5//18 107//19
f 3//26 209//10 111//142
f 122//139 107//19 120//143
f 209//10 121//140 124//136
f 136//144 120//143 129//145
f 136//144 131//146 120//143
f 132//147 117//134 115//135
f 116//137 126//148 127//149
f 118//141 116//137 128//150
f 132//147 125//151 117//134
f 132//147 115//135 131//146
f 128//150 135//152 129//145
f 126//148 137//153 127//149
f 137//153 130//154 133//155
f 129//145 134//156 136//144
f 134//156 137//153 133//155
f 138//157 135//152 128//150
f 128//150 210//158 138//157
f 129//145 146//159 134//156
f 138//157 140//160 135//152
f 137//153 139//161 141//162
f 146//159 143//163 139//161
f 146//159 129//145 140//160
f 138//157 144//164 140//160
f 142//165 144//164 141//162
f 141//162 145//166 142//165
f 211//167 140//160 147//168
f 139//161 143//163 145//166
f 146//159 140//160 211//167
f 145//166 143//163 153//169
f 153//169 150//170 145//166
f 153//169 211//167 151//171
f 147//168 149//172 154//173
f 152//174 148//175 142//165
f 142//165 150//170 152//174
f 151//171 147//168 154//173
f 148//175 152//174 149//172
f 150//170 212//176 152//174
f 150//170 153//169 155//177
f 150//170 155//177 212//176
f 158//178 92//112 170//179
f 160//180 156//119 86//120
f 162//124 168//181 157//123
f 170//179 93//125 171//182
f 163//131 159//183 161//129
f 164//130 213//184 163//131
f 157//123 87//121 88//122
f 162//124 91//110 158//178
f 158//178 168//181 162//124
f 164//130 156//119 213//184
f 165//128 95//127 159//183
f 159//183 171//182 165//128
f 166//185 160//180 157//123
f 171//182 159//183 167//186
f 167//186 213//184 169//187
f 168//181 158//178 170//179
f 170//179 186//188 168//181
f 169//187 156//119 214//189
f 171//182 186//188 170//179
f 216//190 184//191 224//192
f 224//192 184//191 196//193
f 216//190 224//192 223//194
f 175//195 223//194 224//192
f 224//192 178//196 175//195
f 173//197 215//198 222//199
f 172//200 174//201 222//199
f 222//199 174//201 175//195
f 225//202 178//196 177//203
f 216//190 180//204 179//205
f 180//204 181//206 179//205
f 226//207 215//198 173//197
f 172//200 215//198 181//206
f 181//206 223//194 172//200
f 225//202 226//207 173//197
f 183//208 216//190 179//205
f 181//206 189//209 183//208
f 195//210 182//211 177//203
f 182//211 217//212 185//213
f 195//210 197//214 184//191
f 187//215 218//216 185//213
f 188//217 215//198 226//207
f 189//209 214//189 183//208
f 183//208 166//185 186//188
f 217//212 195//210 186//188
f 169//187 214//189 188//217
f 191//218 193//219 192//220
f 188//217 214//189 220//221
f 190//222 215//198 188//217
f 188//217 220//221 190//222
f 220//221 194//223 190//222
f 191//218 190//222 193//219
f 194//223 192//220 193//219
f 177//203 224//192 197//214
f 197//214 196//193 184//191
f 177//203 197//214 195//210
f 219//224 226//207 225//202
f 219//224 225//202 218//216
f 217//212 182//211 195//210
f 113//5 11//3 114//2
f 8//9 209//10 3//26
f 3//26 111//142 199//13
f 110//11 199//13 111//142
f 9//17 108//16 107//19
f 106//21 1//1 221//22
f 198//8 8//9 13//27
f 3//26 199//13 15//28
f 16//12 4//15 17//30
f 5//18 200//35 9//17
f 10//32 18//31 5//18
f 6//20 19//37 18//31
f 19//37 6//20 221//22
f 1//1 99//33 20//40
f 7//23 21//34 100//24
f 12//25 198//8 22//42
f 13//27 3//26 14//29
f 15//28 16//12 103//44
f 17//30 9//17 24//36
f 18//31 96//38 5//18
f 98//39 221//22 1//1
f 99//33 11//3 100//24
f 22//42 21//34 12//25
f 198//8 13//27 101//41
f 13//27 14//29 23//43
f 14//29 15//28 23//43
f 103//44 17//30 104//133
f 97//47 19//37 98//39
f 26//50 99//33 27//53
f 27//53 42//52 26//50
f 28//51 43//55 42//52
f 30//132 31//56 46//58
f 30//132 45//225 29//69
f 31//56 32//60 47//57
f 33//59 203//72 47//57
f 33//59 103//44 34//61
f 48//62 203//72 33//59
f 103//44 104//133 49//63
f 35//77 49//63 104//133
f 104//133 36//79 35//77
f 36//79 105//46 51//80
f 37//82 51//80 105//46
f 105//46 96//38 37//82
f 53//83 37//82 96//38
f 40//65 204//88 39//48
f 40//65 25//49 26//50
f 41//66 26//50 42//52
f 42//52 202//67 41//66
f 59//68 202//67 43//55
f 44//70 29//69 45//225
f 45//225 30//132 46//58
f 46//58 61//71 45//225
f 47//57 62//73 61//71
f 203//72 63//74 62//73
f 48//62 206//75 63//74
f 49//63 64//78 206//75
f 50//76 35//77 36//79
f 52//81 66//98 51//80
f 53//83 52//81 37//82
f 55//86 39//48 204//88
f 56//87 40//65 41//66
f 57//89 41//66 202//67
f 58//90 202//67 59//68
f 59//68 74//93 58//90
f 60//92 44//70 45//225
f 60//92 45//225 61//71
f 63//74 78//95 205//94
f 64//78 80//97 79//111
f 64//78 79//111 78//95
f 66//98 65//96 50//76
f 67//99 208//114 66//98
f 68//85 67//99 52//81
f 68//85 54//84 69//100
f 54//84 55//86 70//102
f 71//103 207//118 204//88
f 72//104 71//103 56//87
f 72//104 57//89 58//90
f 73//105 58//90 74//93
f 90//107 60//92 61//71
f 76//108 61//71 62//73
f 77//109 62//73 205//94
f 205//94 91//110 77//109
f 78//95 92//112 91//110
f 81//113 94//126 80//97
f 208//114 94//126 81//113
f 83//101 82//115 67//99
f 83//101 69//100 84//117
f 69//100 70//102 85//116
f 70//102 204//88 207//118
f 156//119 164//130 207//118
f 86//120 156//119 71//103
f 87//121 86//120 72//104
f 88//122 87//121 73//105
f 88//122 74//93 89//106
f 89//106 157//123 88//122
f 90//107 162//124 157//123
f 162//124 76//108 77//109
f 93//125 79//111 80//97
f 95//127 208//114 82//115
f 161//129 82//115 83//101
f 161//129 83//101 84//117
f 84//117 163//131 161//129
f 84//117 85//116 164//130
f 85//116 207//118 164//130
f 97//47 53//83 96//38
f 97//47 38//64 53//83
f 20//40 39//48 98//39
f 99//33 25//49 20//40
f 100//24 27//53 99//33
f 21//34 28//51 27//53
f 201//54 21//34 22//42
f 22//42 29//69 201//54
f 22//42 101//41 31//56
f 30//132 29//69 22//42
f 101//41 23//43 32//60
f 23//43 102//45 33//59
f 104//133 24//36 36//79
f 24//36 200//35 105//46
f 115//135 114//2 106//21
f 110//11 111//142 124//136
f 123//138 6//20 10//32
f 108//16 118//141 107//19
f 115//135 106//21 6//20
f 114//2 119//6 113//5
f 122//139 10//32 107//19
f 114//2 1//1 106//21
f 117//134 125//151 119//6
f 120//143 107//19 118//141
f 121//140 119//6 125//151
f 120//143 131//146 122//139
f 122//139 131//146 123//138
f 209//10 112//7 121//140
f 129//145 120//143 118//141
f 129//145 118//141 128//150
f 125//151 130//154 121//140
f 130//154 126//148 124//136
f 124//136 121//140 130//154
f 116//137 124//136 126//148
f 127//149 210//158 116//137
f 128//150 116//137 210//158
f 132//147 130//154 125//151
f 132//147 133//155 130//154
f 137//153 126//148 130//154
f 131//146 115//135 123//138
f 133//155 132//147 131//146
f 133//155 131//146 134//156
f 134//156 131//146 136//144
f 134//156 139//161 137//153
f 127//149 137//153 141//162
f 141//162 210//158 127//149
f 134//156 146//159 139//161
f 135//152 140//160 129//145
f 138//157 210//158 141//162
f 138//157 141//162 144//164
f 142//165 148//175 144//164
f 141//162 139//161 145//166
f 148//175 147//168 144//164
f 146//159 211//167 143//163
f 147//168 140//160 144//164
f 153//169 143//163 211//167
f 147//168 148//175 149//172
f 142//165 145//166 150//170
f 151//171 211//167 147//168
f 151//171 154//173 155//177
f 149//172 152//174 212//176
f 153//169 151//171 155//177
f 149//172 155//177 154//173
f 212//176 155//177 149//172
f 158//178 91//110 92//112
f 159//183 95//127 161//129
f 170//179 92//112 93//125
f 163//131 213//184 159//183
f 87//121 160//180 86//120
f 171//182 93//125 94//126
f 171//182 94//126 165//128
f 157//123 160//180 87//121
f 167//186 187//215 171//182
f 166//185 157//123 168//181
f 168//181 186//188 166//185
f 167//186 159//183 213//184
f 169//187 213//184 156//119
f 156//119 160//180 214//189
f 171//182 217//212 186//188
f 166//185 214//189 160//180
f 171//182 187//215 217//212
f 182//211 225//202 177//203
f 222//199 215//198 172//200
f 180//204 216//190 223//194
f 173//197 222//199 225//202
f 222//199 176//226 225//202
f 196//193 197//214 224//192
f 172//200 223//194 174//201
f 175//195 178//196 176//226
f 174//201 223//194 175//195
f 175//195 176//226 222//199
f 225//202 176//226 178//196
f 218//216 182//211 185//213
f 181//206 180//204 223//194
f 183//208 179//205 181//206
f 226//207 219//224 167//186
f 226//207 167//186 169//187
f 185//213 217//212 187//215
f 187//215 219//224 218//216
f 226//207 169//187 188//217
f 183//208 214//189 166//185
f 186//188 216//190 183//208
f 186//188 184//191 216//190
f 186//188 195//210 184//191
f 215//198 191//218 181//206
f 190//222 191//218 215//198
f 220//221 214//189 189//209
f 181//206 192//220 189//209
f 192//220 220//221 189//209
f 190//222 194//223 193//219
f 192//220 181//206 191//218
f 192//220 194//223 220//221
f 177//203 178//196 224//192
f 167//186 219//224 187//215
f 182//211 218//216 225//202
